<svg width="234" height="77" viewBox="0 0 234 77" fill="none" xmlns="http://www.w3.org/2000/svg">
<path fill-rule="evenodd" clip-rule="evenodd" d="M0 0H26.9036H49.1687H77V21H49.1687V77H26.9036V21H0V0ZM101.5 4.62161e-06L85 16.5L107 38.5L85 60.5L101.5 77L123.5 55L145.5 77L162 60.5L140 38.5L162 16.5L145.5 0L123.5 22L101.5 4.62161e-06ZM190 0H170V77H190H194V76.843C216.426 75.0747 234 58.5831 234 38.5C234 18.4168 216.426 1.92525 194 0.156951V0H190ZM198.25 21H192V56H198.25H199.5V55.9286C206.508 55.1249 212 47.6287 212 38.5C212 29.3713 206.508 21.8751 199.5 21.0713V21H198.25Z" fill="#FF7A00"/>
</svg>
